<?xml version="1.0" encoding="UTF-8"?>
<!DOCTYPE svg PUBLIC "-//W3C//DTD SVG 1.1//EN" "http://www.w3.org/Graphics/SVG/1.1/DTD/svg11.dtd">
<svg xmlns="http://www.w3.org/2000/svg" version="1.1" width="512px" height="512px" style="shape-rendering:geometricPrecision; text-rendering:geometricPrecision; image-rendering:optimizeQuality; fill-rule:evenodd; clip-rule:evenodd" xmlns:xlink="http://www.w3.org/1999/xlink">
<g><path style="opacity:0.985" fill="#4767ff" d="M 70.5,-0.5 C 85.1667,-0.5 99.8333,-0.5 114.5,-0.5C 114.5,15.8333 114.5,32.1667 114.5,48.5C 117.059,48.1984 119.393,48.5318 121.5,49.5C 99.8333,49.5 78.1667,49.5 56.5,49.5C 56.3335,38.1618 56.5001,26.8284 57,15.5C 58.8307,7.84178 63.3307,2.50845 70.5,-0.5 Z"/></g>
<g><path style="opacity:0.995" fill="#436dff" d="M 114.5,-0.5 C 127.167,-0.5 139.833,-0.5 152.5,-0.5C 152.5,16.1667 152.5,32.8333 152.5,49.5C 142.167,49.5 131.833,49.5 121.5,49.5C 119.393,48.5318 117.059,48.1984 114.5,48.5C 114.5,32.1667 114.5,15.8333 114.5,-0.5 Z"/></g>
<g><path style="opacity:0.993" fill="#3d73ff" d="M 152.5,-0.5 C 165.5,-0.5 178.5,-0.5 191.5,-0.5C 191.5,22.1667 191.5,44.8333 191.5,67.5C 184.32,62.4962 176.987,57.6629 169.5,53C 164.025,50.8716 158.358,49.705 152.5,49.5C 152.5,32.8333 152.5,16.1667 152.5,-0.5 Z"/></g>
<g><path style="opacity:0.996" fill="#3979ff" d="M 191.5,-0.5 C 204.167,-0.5 216.833,-0.5 229.5,-0.5C 229.5,30.8333 229.5,62.1667 229.5,93.5C 216.554,85.2167 203.887,76.55 191.5,67.5C 191.5,44.8333 191.5,22.1667 191.5,-0.5 Z"/></g>
<g><path style="opacity:0.996" fill="#347fff" d="M 229.5,-0.5 C 242.5,-0.5 255.5,-0.5 268.5,-0.5C 268.5,38.8333 268.5,78.1667 268.5,117.5C 270.415,117.216 272.081,117.549 273.5,118.5C 270.15,118.665 266.817,118.498 263.5,118C 251.985,109.97 240.652,101.804 229.5,93.5C 229.5,62.1667 229.5,30.8333 229.5,-0.5 Z"/></g>
<g><path style="opacity:0.997" fill="#2e86ff" d="M 268.5,-0.5 C 278.5,-0.5 288.5,-0.5 298.5,-0.5C 298.5,39.1667 298.5,78.8333 298.5,118.5C 290.167,118.5 281.833,118.5 273.5,118.5C 272.081,117.549 270.415,117.216 268.5,117.5C 268.5,78.1667 268.5,38.8333 268.5,-0.5 Z"/></g>
<g><path style="opacity:0.995" fill="#298cff" d="M 298.5,-0.5 C 308.167,-0.5 317.833,-0.5 327.5,-0.5C 327.5,39.1667 327.5,78.8333 327.5,118.5C 317.833,118.5 308.167,118.5 298.5,118.5C 298.5,78.8333 298.5,39.1667 298.5,-0.5 Z"/></g>
<g><path style="opacity:0.997" fill="#2492ff" d="M 327.5,-0.5 C 337.5,-0.5 347.5,-0.5 357.5,-0.5C 357.5,39.1667 357.5,78.8333 357.5,118.5C 347.5,118.5 337.5,118.5 327.5,118.5C 327.5,78.8333 327.5,39.1667 327.5,-0.5 Z"/></g>
<g><path style="opacity:0.995" fill="#2097ff" d="M 357.5,-0.5 C 362.833,-0.5 368.167,-0.5 373.5,-0.5C 373.5,38.8333 373.5,78.1667 373.5,117.5C 375.735,117.205 377.735,117.539 379.5,118.5C 372.167,118.5 364.833,118.5 357.5,118.5C 357.5,78.8333 357.5,39.1667 357.5,-0.5 Z"/></g>
<g><path style="opacity:0.997" fill="#1d9aff" d="M 373.5,-0.5 C 379.5,-0.5 385.5,-0.5 391.5,-0.5C 391.5,39.1667 391.5,78.8333 391.5,118.5C 387.5,118.5 383.5,118.5 379.5,118.5C 377.735,117.539 375.735,117.205 373.5,117.5C 373.5,78.1667 373.5,38.8333 373.5,-0.5 Z"/></g>
<g><path style="opacity:0.997" fill="#1a9fff" d="M 391.5,-0.5 C 401.167,-0.5 410.833,-0.5 420.5,-0.5C 420.5,39.1667 420.5,78.8333 420.5,118.5C 410.833,118.5 401.167,118.5 391.5,118.5C 391.5,78.8333 391.5,39.1667 391.5,-0.5 Z"/></g>
<g><path style="opacity:0.996" fill="#15a5ff" d="M 420.5,-0.5 C 427.167,-0.5 433.833,-0.5 440.5,-0.5C 441.965,0.736849 443.632,1.73685 445.5,2.5C 446.488,40.7904 446.821,79.1238 446.5,117.5C 444.901,117.232 443.568,117.566 442.5,118.5C 435.167,118.5 427.833,118.5 420.5,118.5C 420.5,78.8333 420.5,39.1667 420.5,-0.5 Z"/></g>
<g><path style="opacity:0.927" fill="#11a9ff" d="M 445.5,2.5 C 449.826,5.80871 452.659,10.142 454,15.5C 454.5,49.8317 454.667,84.165 454.5,118.5C 450.5,118.5 446.5,118.5 442.5,118.5C 443.568,117.566 444.901,117.232 446.5,117.5C 446.821,79.1238 446.488,40.7904 445.5,2.5 Z"/></g>
<g><path style="opacity:0.973" fill="#4c62ff" d="M 38.5,65.5 C 37.5023,174.43 37.1689,283.43 37.5,392.5C 29.2236,390.057 23.7236,384.724 21,376.5C 20.3333,278.167 20.3333,179.833 21,81.5C 23.1687,72.1648 29.0021,66.8315 38.5,65.5 Z"/></g>
<g><path style="opacity:0.996" fill="#4b64ff" d="M 38.5,65.5 C 43.5,65.5 48.5,65.5 53.5,65.5C 53.5,174.167 53.5,282.833 53.5,391.5C 58.0323,391.182 62.3656,391.515 66.5,392.5C 56.8333,392.5 47.1667,392.5 37.5,392.5C 37.1689,283.43 37.5023,174.43 38.5,65.5 Z"/></g>
<g><path style="opacity:0.994" fill="#4867ff" d="M 53.5,65.5 C 76.1667,65.5 98.8333,65.5 121.5,65.5C 119.393,66.4682 117.059,66.8016 114.5,66.5C 114.5,129.5 114.5,192.5 114.5,255.5C 106.379,256.826 98.3794,258.66 90.5,261C 84.4419,265.284 81.1086,271.117 80.5,278.5C 86.4474,317.626 96.4474,355.626 110.5,392.5C 95.8333,392.5 81.1667,392.5 66.5,392.5C 62.3656,391.515 58.0323,391.182 53.5,391.5C 53.5,282.833 53.5,174.167 53.5,65.5 Z"/></g>
<g><path style="opacity:0.999" fill="#456bff" d="M 121.5,65.5 C 122.167,65.5 122.833,65.5 123.5,65.5C 123.5,127.5 123.5,189.5 123.5,251.5C 120.618,253.108 117.618,254.441 114.5,255.5C 114.5,192.5 114.5,129.5 114.5,66.5C 117.059,66.8016 119.393,66.4682 121.5,65.5 Z"/></g>
<g><path style="opacity:0.995" fill="#426eff" d="M 123.5,65.5 C 133.167,65.5 142.833,65.5 152.5,65.5C 152.168,114.67 152.501,163.67 153.5,212.5C 149.496,230.164 139.496,243.164 123.5,251.5C 123.5,189.5 123.5,127.5 123.5,65.5 Z"/></g>
<g><path style="opacity:0.992" fill="#3f71ff" d="M 152.5,65.5 C 159.258,64.7506 164.925,66.7506 169.5,71.5C 169.168,109.004 169.502,146.337 170.5,183.5C 163.607,185.89 158.774,190.557 156,197.5C 155.211,202.529 154.377,207.529 153.5,212.5C 152.501,163.67 152.168,114.67 152.5,65.5 Z"/></g>
<g><path style="opacity:0.991" fill="#3d74ff" d="M 169.5,71.5 C 177.699,76.0968 185.365,81.4301 192.5,87.5C 191.502,119.329 191.168,151.329 191.5,183.5C 184.5,183.5 177.5,183.5 170.5,183.5C 169.502,146.337 169.168,109.004 169.5,71.5 Z"/></g>
<g><path style="opacity:0.985" fill="#3979ff" d="M 192.5,87.5 C 205.423,95.7504 218.09,104.417 230.5,113.5C 229.511,136.758 229.177,160.092 229.5,183.5C 216.833,183.5 204.167,183.5 191.5,183.5C 191.168,151.329 191.502,119.329 192.5,87.5 Z"/></g>
<g><path style="opacity:0.983" fill="#347fff" d="M 230.5,113.5 C 238.804,119.324 247.138,125.157 255.5,131C 258.994,132.801 262.66,133.967 266.5,134.5C 267.129,151.073 266.462,167.406 264.5,183.5C 252.833,183.5 241.167,183.5 229.5,183.5C 229.177,160.092 229.511,136.758 230.5,113.5 Z"/></g>
<g><path style="opacity:0.986" fill="#2e86ff" d="M 266.5,134.5 C 277.167,134.5 287.833,134.5 298.5,134.5C 298.5,150.5 298.5,166.5 298.5,182.5C 296.585,182.216 294.919,182.549 293.5,183.5C 283.833,183.5 274.167,183.5 264.5,183.5C 266.462,167.406 267.129,151.073 266.5,134.5 Z"/></g>
<g><path style="opacity:0.988" fill="#298cff" d="M 298.5,134.5 C 308.167,134.5 317.833,134.5 327.5,134.5C 327.5,150.5 327.5,166.5 327.5,182.5C 325.585,182.216 323.919,182.549 322.5,183.5C 312.833,183.5 303.167,183.5 293.5,183.5C 294.919,182.549 296.585,182.216 298.5,182.5C 298.5,166.5 298.5,150.5 298.5,134.5 Z"/></g>
<g><path style="opacity:0.986" fill="#2492ff" d="M 327.5,134.5 C 337.5,134.5 347.5,134.5 357.5,134.5C 357.831,159.006 357.498,183.339 356.5,207.5C 356.728,195.766 351.394,187.933 340.5,184C 334.509,183.501 328.509,183.334 322.5,183.5C 323.919,182.549 325.585,182.216 327.5,182.5C 327.5,166.5 327.5,150.5 327.5,134.5 Z"/></g>
<g><path style="opacity:0.994" fill="#2097ff" d="M 357.5,134.5 C 362.833,134.5 368.167,134.5 373.5,134.5C 373.5,170.167 373.5,205.833 373.5,241.5C 364.145,232.123 358.478,220.79 356.5,207.5C 357.498,183.339 357.831,159.006 357.5,134.5 Z"/></g>
<g><path style="opacity:0.996" fill="#1d9aff" d="M 373.5,134.5 C 379.5,134.5 385.5,134.5 391.5,134.5C 391.5,174.167 391.5,213.833 391.5,253.5C 384.684,250.677 378.684,246.677 373.5,241.5C 373.5,205.833 373.5,170.167 373.5,134.5 Z"/></g>
<g><path style="opacity:0.997" fill="#1a9fff" d="M 391.5,134.5 C 401.167,134.5 410.833,134.5 420.5,134.5C 420.5,176.5 420.5,218.5 420.5,260.5C 410.659,258.81 400.992,256.477 391.5,253.5C 391.5,213.833 391.5,174.167 391.5,134.5 Z"/></g>
<g><path style="opacity:0.994" fill="#15a5ff" d="M 420.5,134.5 C 429.167,134.5 437.833,134.5 446.5,134.5C 446.5,220.5 446.5,306.5 446.5,392.5C 431.167,392.5 415.833,392.5 400.5,392.5C 414.632,355.476 424.632,317.31 430.5,278C 430.025,274.263 428.858,270.763 427,267.5C 424.628,265.297 422.461,262.963 420.5,260.5C 420.5,218.5 420.5,176.5 420.5,134.5 Z"/></g>
<g><path style="opacity:0.998" fill="#10abff" d="M 446.5,134.5 C 454.833,134.5 463.167,134.5 471.5,134.5C 471.5,220.167 471.5,305.833 471.5,391.5C 469.901,391.232 468.568,391.566 467.5,392.5C 460.5,392.5 453.5,392.5 446.5,392.5C 446.5,306.5 446.5,220.5 446.5,134.5 Z"/></g>
<g><path style="opacity:0.967" fill="#0bb0ff" d="M 471.5,134.5 C 481.077,135.24 487.244,140.24 490,149.5C 490.667,225.167 490.667,300.833 490,376.5C 486.517,387.483 479.017,392.816 467.5,392.5C 468.568,391.566 469.901,391.232 471.5,391.5C 471.5,305.833 471.5,220.167 471.5,134.5 Z"/></g>
<g><path style="opacity:0.982" fill="#3d73ff" d="M 178.5,198.5 C 182.634,199.485 186.968,199.818 191.5,199.5C 191.171,212.011 191.505,224.345 192.5,236.5C 184.28,257.049 170.947,273.382 152.5,285.5C 152.5,273.167 152.5,260.833 152.5,248.5C 163.526,234.435 169.859,218.435 171.5,200.5C 173.51,198.829 175.843,198.162 178.5,198.5 Z"/></g>
<g><path style="opacity:0.94" fill="#3979ff" d="M 178.5,198.5 C 193.5,198.5 208.5,198.5 223.5,198.5C 225.265,199.461 227.265,199.795 229.5,199.5C 229.5,208.833 229.5,218.167 229.5,227.5C 218.495,227.333 207.495,227.5 196.5,228C 194.689,230.597 193.355,233.431 192.5,236.5C 191.505,224.345 191.171,212.011 191.5,199.5C 186.968,199.818 182.634,199.485 178.5,198.5 Z"/></g>
<g><path style="opacity:0.951" fill="#347fff" d="M 223.5,198.5 C 238.5,198.5 253.5,198.5 268.5,198.5C 268.5,207.833 268.5,217.167 268.5,226.5C 266.901,226.232 265.568,226.566 264.5,227.5C 252.833,227.5 241.167,227.5 229.5,227.5C 229.5,218.167 229.5,208.833 229.5,199.5C 227.265,199.795 225.265,199.461 223.5,198.5 Z"/></g>
<g><path style="opacity:0.955" fill="#2e86ff" d="M 268.5,198.5 C 280.167,198.5 291.833,198.5 303.5,198.5C 302.081,199.451 300.415,199.784 298.5,199.5C 298.5,208.833 298.5,218.167 298.5,227.5C 287.167,227.5 275.833,227.5 264.5,227.5C 265.568,226.566 266.901,226.232 268.5,226.5C 268.5,217.167 268.5,207.833 268.5,198.5 Z"/></g>
<g><path style="opacity:0.958" fill="#298cff" d="M 303.5,198.5 C 314.5,198.5 325.5,198.5 336.5,198.5C 333.713,199.477 330.713,199.81 327.5,199.5C 327.5,217.5 327.5,235.5 327.5,253.5C 322.256,245.514 317.923,237.014 314.5,228C 309.177,227.501 303.844,227.334 298.5,227.5C 298.5,218.167 298.5,208.833 298.5,199.5C 300.415,199.784 302.081,199.451 303.5,198.5 Z"/></g>
<g><path style="opacity:0.97" fill="#2492ff" d="M 336.5,198.5 C 338.113,198.944 339.28,199.944 340,201.5C 341.375,219.137 347.541,234.803 358.5,248.5C 357.505,260.322 357.172,272.322 357.5,284.5C 344.784,276.784 334.784,266.451 327.5,253.5C 327.5,235.5 327.5,217.5 327.5,199.5C 330.713,199.81 333.713,199.477 336.5,198.5 Z"/></g>
<g><path style="opacity:0.978" fill="#426dff" d="M 152.5,248.5 C 152.5,260.833 152.5,273.167 152.5,285.5C 145.67,290.084 138.336,293.917 130.5,297C 129.919,297.893 129.585,298.893 129.5,300C 134.795,327.046 142.795,353.213 153.5,378.5C 152.833,397.167 152.167,415.833 151.5,434.5C 140.082,417.667 130.749,399.667 123.5,380.5C 123.173,343.094 123.507,305.761 124.5,268.5C 135.169,263.82 144.503,257.154 152.5,248.5 Z"/></g>
<g><path style="opacity:0.962" fill="#347fff" d="M 268.5,255.5 C 268.5,261.5 268.5,267.5 268.5,273.5C 252.392,267.454 239.392,271.454 229.5,285.5C 229.5,277.5 229.5,269.5 229.5,261.5C 234.418,257.572 240.084,255.072 246.5,254C 252.5,253.333 258.5,253.333 264.5,254C 266.058,254.21 267.391,254.71 268.5,255.5 Z"/></g>
<g><path style="opacity:0.988" fill="#2e86ff" d="M 268.5,255.5 C 281.028,258.855 290.528,266.189 297,277.5C 298.136,279.743 298.97,282.076 299.5,284.5C 298.501,325.997 298.168,367.663 298.5,409.5C 296.585,409.216 294.919,409.549 293.5,410.5C 285.167,410.5 276.833,410.5 268.5,410.5C 266.865,395.232 265.865,379.899 265.5,364.5C 268.167,359.5 268.167,354.5 265.5,349.5C 266.166,345.347 266.499,341.013 266.5,336.5C 266.44,331.583 265.773,326.917 264.5,322.5C 271.167,322.5 277.833,322.5 284.5,322.5C 284.906,311.436 284.406,300.436 283,289.5C 279.693,282.697 274.86,277.364 268.5,273.5C 268.5,267.5 268.5,261.5 268.5,255.5 Z"/></g>
<g><path style="opacity:0.992" fill="#377bff" d="M 229.5,261.5 C 229.5,269.5 229.5,277.5 229.5,285.5C 228.394,288.054 227.561,290.721 227,293.5C 226.5,303.161 226.334,312.828 226.5,322.5C 227.5,322.5 228.5,322.5 229.5,322.5C 229.5,351.5 229.5,380.5 229.5,409.5C 227.265,409.205 225.265,409.539 223.5,410.5C 221.167,410.5 218.833,410.5 216.5,410.5C 216.832,365.33 216.499,320.33 215.5,275.5C 219.188,269.812 223.855,265.145 229.5,261.5 Z"/></g>
<g><path style="opacity:0.981" fill="#1f99ff" d="M 358.5,248.5 C 367.933,258.281 378.933,265.614 391.5,270.5C 391.168,303.004 391.502,335.338 392.5,367.5C 384.229,392.378 372.562,415.378 357.5,436.5C 357.83,417.659 357.497,398.993 356.5,380.5C 368.706,353.733 376.706,325.9 380.5,297C 372.163,293.836 364.497,289.669 357.5,284.5C 357.172,272.322 357.505,260.322 358.5,248.5 Z"/></g>
<g><path style="opacity:0.972" fill="#1b9eff" d="M 391.5,270.5 C 399.133,271.797 406.633,273.464 414,275.5C 410.615,307.041 403.448,337.708 392.5,367.5C 391.502,335.338 391.168,303.004 391.5,270.5 Z"/></g>
<g><path style="opacity:0.963" fill="#456aff" d="M 124.5,268.5 C 123.507,305.761 123.173,343.094 123.5,380.5C 109.824,346.798 100.991,311.798 97,275.5C 106.219,273.543 115.385,271.21 124.5,268.5 Z"/></g>
<g><path style="opacity:0.976" fill="#3979ff" d="M 215.5,275.5 C 216.499,320.33 216.832,365.33 216.5,410.5C 207.973,412.389 201.473,409.722 197,402.5C 196.333,378.5 196.333,354.5 197,330.5C 198.78,324.888 202.613,322.221 208.5,322.5C 208.334,312.828 208.5,303.161 209,293.5C 210.094,287.045 212.261,281.045 215.5,275.5 Z"/></g>
<g><path style="opacity:0.978" fill="#347fff" d="M 229.5,322.5 C 241.167,322.5 252.833,322.5 264.5,322.5C 265.773,326.917 266.44,331.583 266.5,336.5C 266.499,341.013 266.166,345.347 265.5,349.5C 258.999,344.2 252.499,344.2 246,349.5C 242.466,355.089 242.799,360.422 247,365.5C 247.333,370.833 247.667,376.167 248,381.5C 251.825,388.583 256.492,389.25 262,383.5C 263.245,377.61 263.912,371.61 264,365.5C 264.383,364.944 264.883,364.611 265.5,364.5C 265.865,379.899 266.865,395.232 268.5,410.5C 253.5,410.5 238.5,410.5 223.5,410.5C 225.265,409.539 227.265,409.205 229.5,409.5C 229.5,380.5 229.5,351.5 229.5,322.5 Z"/></g>
<g><path style="opacity:0.976" fill="#2b8bff" d="M 299.5,284.5 C 300.761,287.258 301.594,290.258 302,293.5C 302.5,303.161 302.666,312.828 302.5,322.5C 307.952,322.144 311.785,324.477 314,329.5C 314.667,353.833 314.667,378.167 314,402.5C 312.75,405.171 310.917,407.337 308.5,409C 303.599,410.325 298.599,410.825 293.5,410.5C 294.919,409.549 296.585,409.216 298.5,409.5C 298.168,367.663 298.501,325.997 299.5,284.5 Z"/></g>
<g><path style="opacity:0.978" fill="#2493ff" d="M 356.5,380.5 C 357.497,398.993 357.83,417.659 357.5,436.5C 349.273,449.394 339.273,460.727 327.5,470.5C 327.5,456.833 327.5,443.167 327.5,429.5C 338.93,414.321 348.597,397.988 356.5,380.5 Z"/></g>
<g><path style="opacity:0.98" fill="#3e73ff" d="M 153.5,378.5 C 163.169,400.528 175.835,420.528 191.5,438.5C 191.5,451.5 191.5,464.5 191.5,477.5C 176.104,465.103 162.771,450.77 151.5,434.5C 152.167,415.833 152.833,397.167 153.5,378.5 Z"/></g>
<g><path style="opacity:0.978" fill="#298dff" d="M 327.5,429.5 C 327.5,443.167 327.5,456.833 327.5,470.5C 320.779,477.696 313.112,483.696 304.5,488.5C 302.522,477.549 301.856,466.216 302.5,454.5C 311.167,446.5 319.5,438.167 327.5,429.5 Z"/></g>
<g><path style="opacity:0.98" fill="#3978ff" d="M 191.5,438.5 C 203.312,450.649 216.312,461.315 230.5,470.5C 229.506,480.653 229.172,490.986 229.5,501.5C 215.493,495.468 202.827,487.468 191.5,477.5C 191.5,464.5 191.5,451.5 191.5,438.5 Z"/></g>
<g><path style="opacity:0.979" fill="#2e87ff" d="M 302.5,454.5 C 301.856,466.216 302.522,477.549 304.5,488.5C 293.636,496.103 281.969,502.436 269.5,507.5C 269.195,497.191 268.195,487.191 266.5,477.5C 279.481,471.345 291.481,463.678 302.5,454.5 Z"/></g>
<g><path style="opacity:0.976" fill="#347fff" d="M 230.5,470.5 C 238.699,474.432 247.033,478.099 255.5,481.5C 259.185,480.161 262.851,478.828 266.5,477.5C 268.195,487.191 269.195,497.191 269.5,507.5C 265.873,508.321 262.54,509.654 259.5,511.5C 256.833,511.5 254.167,511.5 251.5,511.5C 244.083,508.36 236.749,505.027 229.5,501.5C 229.172,490.986 229.506,480.653 230.5,470.5 Z"/></g>
</svg>
