<?xml version="1.0" encoding="UTF-8"?>
<!DOCTYPE svg PUBLIC "-//W3C//DTD SVG 1.1//EN" "http://www.w3.org/Graphics/SVG/1.1/DTD/svg11.dtd">
<svg xmlns="http://www.w3.org/2000/svg" version="1.1" width="512px" height="512px" style="shape-rendering:geometricPrecision; text-rendering:geometricPrecision; image-rendering:optimizeQuality; fill-rule:evenodd; clip-rule:evenodd" xmlns:xlink="http://www.w3.org/1999/xlink">
<g><path style="opacity:0.997" fill="#2684ff" d="M 243.5,-0.5 C 328.167,-0.5 412.833,-0.5 497.5,-0.5C 503.833,2.5 508.5,7.16667 511.5,13.5C 511.5,97.8333 511.5,182.167 511.5,266.5C 464.112,264.075 429.945,241.742 409,199.5C 405.118,190.519 402.451,181.186 401,171.5C 399.634,151.528 399.134,131.528 399.5,111.5C 382.83,111.667 366.163,111.5 349.5,111C 304,107.175 271.5,84.6746 252,43.5C 246.15,29.4185 243.317,14.7518 243.5,-0.5 Z"/></g>
<g><path style="opacity:0.993" fill="#2684fe" d="M 168.5,121.5 C 242.193,192.861 315.86,264.194 389.5,335.5C 389.5,353.5 389.5,371.5 389.5,389.5C 341.096,387.067 306.596,364.067 286,320.5C 281.598,309.227 278.932,297.56 278,285.5C 277.5,268.503 277.333,251.503 277.5,234.5C 262.163,234.667 246.83,234.5 231.5,234C 184.277,231.414 150.443,208.914 130,166.5C 124.019,152.095 121.186,137.095 121.5,121.5C 137.167,121.5 152.833,121.5 168.5,121.5 Z"/></g>
<g><path style="opacity:0.994" fill="#1d79f4" d="M 197.5,121.5 C 205.833,121.5 214.167,121.5 222.5,121.5C 220.708,122.309 218.708,122.809 216.5,123C 273.731,179.4 331.398,235.233 389.5,290.5C 389.5,296.167 389.5,301.833 389.5,307.5C 325.169,245.836 261.169,183.836 197.5,121.5 Z"/></g>
<g><path style="opacity:0.991" fill="#1067e1" d="M 250.5,122.5 C 250.5,122.167 250.5,121.833 250.5,121.5C 258.833,121.5 267.167,121.5 275.5,121.5C 278.305,122.319 281.305,122.819 284.5,123C 319.065,157.4 354.065,191.233 389.5,224.5C 389.5,232.5 389.5,240.5 389.5,248.5C 346.035,206.87 302.702,165.037 259.5,123C 256.518,122.502 253.518,122.335 250.5,122.5 Z"/></g>
<g><path style="opacity:0.968" fill="#0052cc" d="M 336.5,121.5 C 347.838,121.333 359.172,121.5 370.5,122C 380.022,123.19 386.188,128.357 389,137.5C 389.5,149.162 389.667,160.829 389.5,172.5C 371.503,155.836 353.837,138.836 336.5,121.5 Z"/></g>
<g><path style="opacity:0.999" fill="#227ffa" d="M 168.5,121.5 C 178.167,121.5 187.833,121.5 197.5,121.5C 261.169,183.836 325.169,245.836 389.5,307.5C 389.5,316.833 389.5,326.167 389.5,335.5C 315.86,264.194 242.193,192.861 168.5,121.5 Z"/></g>
<g><path style="opacity:0.999" fill="#1973ee" d="M 222.5,121.5 C 231.833,121.5 241.167,121.5 250.5,121.5C 250.5,121.833 250.5,122.167 250.5,122.5C 246.154,122.334 241.821,122.501 237.5,123C 288.339,171.673 339.006,220.506 389.5,269.5C 389.5,276.5 389.5,283.5 389.5,290.5C 331.398,235.233 273.731,179.4 216.5,123C 218.708,122.809 220.708,122.309 222.5,121.5 Z"/></g>
<g><path style="opacity:0.999" fill="#156de8" d="M 250.5,122.5 C 253.518,122.335 256.518,122.502 259.5,123C 302.702,165.037 346.035,206.87 389.5,248.5C 389.5,255.5 389.5,262.5 389.5,269.5C 339.006,220.506 288.339,171.673 237.5,123C 241.821,122.501 246.154,122.334 250.5,122.5 Z"/></g>
<g><path style="opacity:0.998" fill="#0b60db" d="M 275.5,121.5 C 285.167,121.5 294.833,121.5 304.5,121.5C 332.22,149.555 360.553,176.888 389.5,203.5C 389.5,210.5 389.5,217.5 389.5,224.5C 354.065,191.233 319.065,157.4 284.5,123C 281.305,122.819 278.305,122.319 275.5,121.5 Z"/></g>
<g><path style="opacity:0.998" fill="#0559d3" d="M 304.5,121.5 C 315.167,121.5 325.833,121.5 336.5,121.5C 353.837,138.836 371.503,155.836 389.5,172.5C 389.5,182.833 389.5,193.167 389.5,203.5C 360.553,176.888 332.22,149.555 304.5,121.5 Z"/></g>
<g><path style="opacity:0.992" fill="#1f7bf6" d="M 52.5,244.5 C 62.8333,244.5 73.1667,244.5 83.5,244.5C 81.369,245.314 79.0356,245.814 76.5,246C 140.03,310.529 203.196,375.362 266,440.5C 266.232,439.263 266.732,438.263 267.5,437.5C 267.5,447.833 267.5,458.167 267.5,468.5C 266.698,467.048 266.198,465.382 266,463.5C 194.368,390.852 123.201,317.852 52.5,244.5 Z"/></g>
<g><path style="opacity:0.995" fill="#1a74ef" d="M 83.5,244.5 C 94.1667,244.5 104.833,244.5 115.5,244.5C 113.369,245.314 111.036,245.814 108.5,246C 161.367,300.367 214.367,354.533 267.5,408.5C 267.5,418.167 267.5,427.833 267.5,437.5C 266.732,438.263 266.232,439.263 266,440.5C 203.196,375.362 140.03,310.529 76.5,246C 79.0356,245.814 81.369,245.314 83.5,244.5 Z"/></g>
<g><path style="opacity:0.995" fill="#156de8" d="M 115.5,244.5 C 120.833,244.5 126.167,244.5 131.5,244.5C 176.498,291.498 221.831,338.164 267.5,384.5C 267.5,392.5 267.5,400.5 267.5,408.5C 214.367,354.533 161.367,300.367 108.5,246C 111.036,245.814 113.369,245.314 115.5,244.5 Z"/></g>
<g><path style="opacity:0.994" fill="#1068e2" d="M 131.5,244.5 C 138.5,244.5 145.5,244.5 152.5,244.5C 151.737,245.268 150.737,245.768 149.5,246C 188.7,286.699 228.034,327.199 267.5,367.5C 267.5,373.167 267.5,378.833 267.5,384.5C 221.831,338.164 176.498,291.498 131.5,244.5 Z"/></g>
<g><path style="opacity:0.99" fill="#0c62dd" d="M 152.5,244.5 C 157.5,244.5 162.5,244.5 167.5,244.5C 168.952,245.302 170.618,245.802 172.5,246C 203.671,279.004 235.338,311.504 267.5,343.5C 267.5,351.5 267.5,359.5 267.5,367.5C 228.034,327.199 188.7,286.699 149.5,246C 150.737,245.768 151.737,245.268 152.5,244.5 Z"/></g>
<g><path style="opacity:0.991" fill="#075bd5" d="M 167.5,244.5 C 181.5,244.5 195.5,244.5 209.5,244.5C 211.969,245.317 214.635,245.817 217.5,246C 234.396,262.728 251.062,279.562 267.5,296.5C 267.5,312.167 267.5,327.833 267.5,343.5C 235.338,311.504 203.671,279.004 172.5,246C 170.618,245.802 168.952,245.302 167.5,244.5 Z"/></g>
<g><path style="opacity:0.963" fill="#0052cc" d="M 209.5,244.5 C 222.837,244.333 236.171,244.5 249.5,245C 258.479,246.647 264.313,251.814 267,260.5C 267.5,272.495 267.667,284.495 267.5,296.5C 251.062,279.562 234.396,262.728 217.5,246C 214.635,245.817 211.969,245.317 209.5,244.5 Z"/></g>
<g><path style="opacity:0.995" fill="#2583fe" d="M -0.5,244.5 C 17.1667,244.5 34.8333,244.5 52.5,244.5C 123.201,317.852 194.368,390.852 266,463.5C 266.198,465.382 266.698,467.048 267.5,468.5C 267.5,482.833 267.5,497.167 267.5,511.5C 262.5,511.5 257.5,511.5 252.5,511.5C 200.19,501.692 168.357,470.692 157,418.5C 155.599,397.866 155.099,377.199 155.5,356.5C 133.465,356.92 111.465,356.42 89.5,355C 39.4533,342.456 9.45333,310.956 -0.5,260.5C -0.5,255.167 -0.5,249.833 -0.5,244.5 Z"/></g>
</svg>
