<?xml version="1.0" encoding="UTF-8"?>
<svg version="1.1" xmlns="http://www.w3.org/2000/svg" width="1500" height="935">
<path d="M0 0 C2.38819989 0.00968679 4.77638223 0.01497543 7.16459656 0.01975632 C29.93458887 0.07977764 52.36485862 0.51941818 74.8502655 4.44703293 C76.32969489 4.69659173 77.80918954 4.94576386 79.28874207 5.19459152 C155.0858852 18.10835377 226.85907691 48.44464906 287.8502655 95.44703293 C288.38828796 95.8588884 288.92631042 96.27074387 289.4806366 96.6950798 C311.32330468 113.44385383 333.10276527 132.15318413 350.936203 153.19312668 C352.50423858 155.03956857 354.09426492 156.85793337 355.701828 158.66968918 C363.88408721 167.9283645 371.48579009 177.52862224 378.8502655 187.44703293 C379.38119812 188.1569841 379.91213074 188.86693527 380.45915222 189.59840012 C393.1480795 206.61213356 404.62089486 224.4251528 414.62174988 243.15015793 C415.90961863 245.55800157 417.2160261 247.95529446 418.5221405 250.35328293 C434.83284552 280.57554916 447.70804771 313.05679767 455.8502655 346.44703293 C452.2202655 346.44703293 448.5902655 346.44703293 444.8502655 346.44703293 C444.49013367 345.22862717 444.49013367 345.22862717 444.12272644 343.98560715 C428.54974125 291.72161403 405.97500571 240.3480347 372.17301941 197.15064621 C370.12414072 194.51183567 368.1491014 191.82071774 366.1627655 189.13453293 C361.88261297 183.43533341 357.41746832 177.91766744 352.8502655 172.44703293 C351.59512146 170.93435837 351.59512146 170.93435837 350.31462097 169.39112473 C343.04932724 160.72248832 335.32563978 152.61096689 327.30461121 144.64063644 C325.27904068 142.62585458 323.26448167 140.60050018 321.25065613 138.57398605 C314.08590923 131.40195424 306.82314831 124.7191936 298.8502655 118.44703293 C297.75976869 117.52444449 296.67517657 116.59476547 295.6002655 115.65406418 C267.42573063 91.12140811 235.11282497 72.14613156 201.8502655 55.44703293 C200.98014832 55.00730148 200.11003113 54.56757004 199.21354675 54.1145134 C154.89368244 31.85516882 105.71514635 19.19559164 56.6627655 13.19703293 C55.98710541 13.11385818 55.31144531 13.03068344 54.61531067 12.94498825 C-28.15230617 2.88677045 -112.94468093 17.40017338 -269.37532043 100.06959152 C-271.0942678 101.40397526 -272.82596717 102.71940261 -274.563797 104.02906418 C-285.05540265 111.95898236 -295.04581223 120.4360194 -304.77082825 129.28687668 C-306.33554956 130.70771557 -307.91086978 132.11698395 -309.49739075 133.51343918 C-319.01856863 141.91994257 -328.30138219 150.83120231 -336.516922 160.53297043 C-338.48889784 162.84461675 -340.53817858 165.07849035 -342.5872345 167.32203293 C-346.98662883 172.21516163 -351.13238875 177.23622245 -355.1497345 182.44703293 C-355.67309387 183.12491867 -356.19645325 183.80280441 -356.735672 184.50123215 C-369.99439279 201.74125215 -382.29755702 219.59069351 -393.1497345 238.44703293 C-393.5195343 239.07980148 -393.88933411 239.71257004 -394.27033997 240.3645134 C-424.56002749 292.33900888 -442.99182317 350.00139409 -451.1497345 409.44703293 C-451.24168091 410.11464645 -451.33362732 410.78225998 -451.42835999 411.47010422 C-456.51739422 449.10245094 -456.32931673 488.83861397 -451.1497345 526.44703293 C-451.00408051 527.50839462 -451.00408051 527.50839462 -450.85548401 528.59119797 C-440.14188153 605.5940208 -410.83629223 679.09529665 -364.1497345 741.44703293 C-363.47732727 742.34905441 -363.47732727 742.34905441 -362.79133606 743.26929855 C-354.02482401 754.98895054 -344.56406421 766.03387291 -334.6184845 776.75953293 C-332.66004517 778.89150485 -330.76718702 781.04907893 -328.8997345 783.25953293 C-321.4035573 791.89919478 -313.07983168 800.22988648 -304.33332825 807.60328293 C-302.51013444 809.14272385 -300.71948177 810.70720775 -298.93489075 812.29078293 C-289.67409231 820.47694522 -280.06886544 828.07689054 -270.1497345 835.44703293 C-269.43446594 835.98328293 -268.71919739 836.51953293 -267.98225403 837.07203293 C-190.65722949 894.91372357 -94.16239798 925.75458155 2.1627655 925.63453293 C3.13680328 925.63359634 4.11084106 925.63265976 5.11439514 925.63169479 C20.45036426 925.59981063 35.60512434 925.26219583 50.8502655 923.44703293 C52.77733337 923.22104416 52.77733337 923.22104416 54.74333191 922.99048996 C105.98100359 916.84442098 155.30080962 902.90085975 201.8502655 880.44703293 C203.24752869 879.78018478 203.24752869 879.78018478 204.67301941 879.09986496 C225.38496755 869.18059951 244.9992391 857.55238417 263.8502655 844.44703293 C264.5922821 843.93173019 265.33429871 843.41642746 266.09880066 842.88550949 C276.60283991 835.54555516 286.68033053 827.77261231 296.45109558 819.48145676 C298.27438534 817.93536196 300.10568293 816.40108913 301.9427948 814.87159348 C310.4430551 807.7464483 318.41395403 800.19565415 326.22941589 792.32862473 C328.17177035 790.37547805 330.12469508 788.43335673 332.07878113 786.4919548 C338.36217903 780.21532105 344.3464561 773.90188466 349.86003113 766.93140793 C351.81459365 764.49156148 353.85568651 762.17226574 355.95573425 759.85718918 C359.96410557 755.3927578 363.59025022 750.70158366 367.1627655 745.88453293 C367.81229187 745.01175705 368.46181824 744.13898117 369.13102722 743.23975754 C403.62620088 696.6495914 428.83352813 645.0943078 444.8502655 589.44703293 C448.4802655 589.44703293 452.1102655 589.44703293 455.8502655 589.44703293 C438.74382369 655.42068226 406.53320433 716.19881198 362.8502655 768.44703293 C362.41520691 768.96845871 361.98014832 769.48988449 361.53190613 770.02711105 C348.41062426 785.70232367 334.51276224 801.35458673 318.936203 814.64234543 C315.53297123 817.58671449 312.25144291 820.66482664 308.951828 823.72437668 C304.74974812 827.49679753 300.28108248 830.94995582 295.8502655 834.44703293 C295.07376648 835.0629631 294.29726746 835.67889328 293.49723816 836.31348801 C272.86023036 852.59515528 250.9459394 866.90335904 227.8502655 879.44703293 C226.49650818 880.18663254 226.49650818 880.18663254 225.11540222 880.94117355 C180.43034615 905.21992416 132.30094665 921.28144558 82.2877655 930.19703293 C81.26384705 930.38354416 80.23992859 930.57005539 79.1849823 930.76221848 C75.41569865 931.40050255 71.63983392 931.94685039 67.8502655 932.44703293 C66.89591614 932.57304886 65.94156677 932.69906479 64.95829773 932.82889938 C45.86995434 935.25997566 27.0403656 935.95330097 7.82341003 935.89307785 C4.76844277 935.88392008 1.71424262 935.89077207 -1.34065247 935.91358566 C-86.45934567 936.54450362 -171.19445008 911.92308508 -307.7434845 818.64234543 C-309.06213353 817.43929225 -310.38870608 816.24402929 -311.74909973 815.08839035 C-317.96795168 809.78596653 -323.71292293 804.03544053 -329.47712708 798.25001144 C-331.2086815 796.51309693 -332.94551809 794.78159404 -334.68293762 793.05054855 C-340.38518988 787.35197287 -345.95054204 781.61506366 -351.1497345 775.44703293 C-351.9953595 774.48281418 -352.8409845 773.51859543 -353.7122345 772.52515793 C-416.86068073 699.25676839 -454.94728054 606.25155254 -464.53450012 431.9020195 C-463.9703678 424.38928737 -463.13044986 416.91585856 -462.1497345 409.44703293 C-462.0549884 408.72270065 -461.96024231 407.99836838 -461.86262512 407.25208664 C-455.77301794 361.37356323 -443.42160768 316.57311211 -424.1497345 274.44703293 C-423.4386554 272.88468918 -423.4386554 272.88468918 -422.71321106 271.29078293 C-404.75657657 232.1388424 -381.2671403 196.04062543 -353.1497345 163.44703293 C-352.19260559 162.33715012 -352.19260559 162.33715012 -351.21614075 161.20484543 C-349.53851388 159.27538081 -347.84517427 157.36085911 -346.1497345 155.44703293 C-345.53702698 154.74948898 -344.92431946 154.05194504 -344.29304504 153.3332634 C-338.48939707 146.79345949 -332.42115705 140.56402311 -326.2290802 134.39600754 C-324.58232046 132.75463497 -322.94101354 131.10794474 -321.30012512 129.4607048 C-315.75750409 123.91385435 -310.16493361 118.48537073 -304.1497345 113.44703293 C-303.50705627 112.90296799 -302.86437805 112.35890305 -302.20222473 111.79835129 C-276.65261067 90.28602135 -249.27985885 71.76373251 -220.1497345 55.44703293 C-219.10849426 54.85704514 -219.10849426 54.85704514 -218.04621887 54.2551384 C-174.57683373 29.71050894 -124.95727713 14.00553524 -75.8372345 5.63453293 C-74.76852112 5.45172775 -73.69980774 5.26892258 -72.59870911 5.08057785 C-68.7897773 4.47331615 -64.97377044 3.94755163 -61.1497345 3.44703293 C-60.22428833 3.3220845 -59.29884216 3.19713608 -58.34535217 3.06840134 C-38.85207194 0.49927082 -19.62713863 -0.08217466 0 0 Z " fill="#68A2F2" transform="translate(466.1497344970703,-0.4470329284667969)"/>
<path d="M0 0 C15.84 0 31.68 0 48 0 C65.8985674 36.61691652 65.8985674 36.61691652 74.23510742 54.73925781 C78.21936567 63.37837349 82.3364096 71.94646669 86.5 80.5 C91.80813981 91.40551656 96.98140239 102.36377718 102.05737305 113.37988281 C108.51234001 127.34552164 115.25844291 141.17102074 122 155 C124.74649365 151.68207093 126.45350082 148.09333193 128.16015625 144.17578125 C128.46183212 143.49448654 128.763508 142.81319183 129.07432556 142.11125183 C130.07532874 139.84714785 131.06890667 137.57986441 132.0625 135.3125 C132.77235955 133.70293665 133.48265504 132.09356551 134.19335938 130.484375 C136.46936893 125.32603953 138.73497666 120.16316656 141 115 C141.75105662 113.28951447 142.50219536 111.57906499 143.25341797 109.86865234 C146.26445271 103.0123621 149.27434117 96.15557115 152.28100586 89.29736328 C158.79855997 74.43452802 165.37975839 59.60052885 171.98335266 44.77575684 C174.49931625 39.12697548 177.01023337 33.47596397 179.51953125 27.82421875 C180.26610896 26.14298311 181.01269094 24.46174936 181.75927734 22.78051758 C182.84079707 20.34500876 183.92220926 17.90945255 185.00323486 15.47372437 C185.99001129 13.25052237 186.97736207 11.02757631 187.96484375 8.8046875 C188.40580132 7.81060127 188.40580132 7.81060127 188.85566711 6.7964325 C190.88608853 2.22782295 190.88608853 2.22782295 192 0 C209.49 0 226.98 0 245 0 C245 2.97 245 5.94 245 9 C236.42 9 227.84 9 219 9 C219 67.41 219 125.82 219 186 C225.6 186 232.2 186 239 186 C244 189 244 189 245 190 C245 191.98 245 193.96 245 196 C218.93 196 192.86 196 166 196 C166 192.7 166 189.4 166 186 C174.58 186 183.16 186 192 186 C191.67 136.5 191.34 87 191 36 C180.63316423 58.91616328 170.28493489 81.82118688 160.09375 104.8125 C155.22256218 115.7854915 150.25873343 126.71660724 145.29785156 137.64926147 C140.94346657 147.24634822 136.60832848 156.85089352 132.34375 166.48828125 C131.97358765 167.32438934 131.60342529 168.16049744 131.2220459 169.02194214 C129.47174195 172.97791486 127.72591343 176.93578696 125.98632812 180.89648438 C125.36595812 182.30211542 124.74551941 183.70771615 124.125 185.11328125 C123.8508728 185.7414827 123.57674561 186.36968414 123.29431152 187.016922 C122.55430567 188.68912792 121.77828462 190.34526306 121 192 C120.60554687 192.96703857 120.21109375 193.93407715 119.8046875 194.93041992 C118 197 118 197 116.03173828 197.30513 C114.01859898 197.31181555 112.00642149 197.16446078 110 197 C101.12052503 178.87225875 92.26868432 160.74187793 83.83520508 142.40136719 C79.67223785 133.37650718 75.35595093 124.43267181 71 115.5 C64.90764237 103.00452241 58.97326549 90.44824723 53.16015625 77.8203125 C49.16060214 69.18839473 45.07259393 60.59769831 41 52 C40.67 96.22 40.34 140.44 40 186 C46.6 186 53.2 186 60 186 C65 189 65 189 66 190 C66 191.98 66 193.96 66 196 C44.22 196 22.44 196 0 196 C0 192.7 0 189.4 0 186 C8.58 186 17.16 186 26 186 C26 127.59 26 69.18 26 9 C17.42 9 8.84 9 0 9 C0 6.03 0 3.06 0 0 Z " fill="#688EF1" transform="translate(759,369)"/>
<path d="M0 0 C15.84 0 31.68 0 48 0 C50.248125 4.785 52.49625 9.57 54.8125 14.5 C61.7690902 29.29225821 68.76960019 44.06331412 75.78833008 58.82617188 C76.59587418 60.52473564 77.40340999 62.22330335 78.2109375 63.921875 C78.61005844 64.76137695 79.00917938 65.60087891 79.4203949 66.46582031 C83.6225033 75.30633061 87.81163383 84.15297312 92 93 C98.06693567 105.81337084 104.13969327 118.62396586 110.22070312 131.43066406 C111.06719883 133.21347447 111.91355514 134.99635107 112.75976562 136.77929688 C113.93317396 139.25150168 115.10712871 141.72344623 116.28125 144.1953125 C116.62933716 144.9288797 116.97742432 145.6624469 117.33605957 146.41824341 C118.86114892 149.62744811 120.39171287 152.83151067 122 156 C129.5855758 139.73679147 136.83538384 123.33516968 144.03076172 106.89672852 C148.98432402 95.58147849 153.97234009 84.28251033 159 73 C164.91310805 59.72500624 170.78248458 46.43121462 176.625 33.125 C177.19226807 31.83384277 177.19226807 31.83384277 177.77099609 30.51660156 C178.86111949 28.03484142 179.95027523 25.55265908 181.0390625 23.0703125 C181.35098541 22.3601297 181.66290833 21.6499469 181.98428345 20.91824341 C185.03180628 13.96293694 188.00833974 6.98054061 191 0 C208.82 0 226.64 0 245 0 C245 2.97 245 5.94 245 9 C236.42 9 227.84 9 219 9 C219 67.41 219 125.82 219 186 C225.6 186 232.2 186 239 186 C240.65 186.99 242.3 187.98 244 189 C244.33 191.31 244.66 193.62 245 196 C218.93 196 192.86 196 166 196 C166 192.7 166 189.4 166 186 C174.58 186 183.16 186 192 186 C191.67 136.17 191.34 86.34 191 35 C175.71646363 68.77107891 175.71646363 68.77107891 160.52832031 102.58447266 C157.31282812 109.77053269 154.09031729 116.9534496 150.86914062 124.13696289 C148.18361081 130.1266132 145.49987361 136.11705187 142.8203125 142.109375 C134.61988048 160.43967871 126.32656659 178.72670277 118 197 C115.36 197 112.72 197 110 197 C104.23077156 186.75134042 99.25108546 176.20103278 94.34301758 165.51855469 C90.01650184 156.11858036 85.53824034 146.79938423 81 137.5 C75.52301956 126.27076007 70.17861434 114.99397904 64.95556641 103.64379883 C59.88467842 92.66369691 54.60312026 81.78886626 49.29101562 70.92382812 C48.96118683 70.24790115 48.63135803 69.57197418 48.29153442 68.87556458 C47.39689424 67.04284218 46.50004141 65.21120035 45.60302734 63.37963867 C43.98101816 59.95998087 42.49091941 56.47881195 41 53 C40.67 96.89 40.34 140.78 40 186 C46.6 186 53.2 186 60 186 C61.65 186.99 63.3 187.98 65 189 C65.495 192.465 65.495 192.465 66 196 C44.22 196 22.44 196 0 196 C0 192.7 0 189.4 0 186 C8.58 186 17.16 186 26 186 C26 127.59 26 69.18 26 9 C17.42 9 8.84 9 0 9 C0 6.03 0 3.06 0 0 Z " fill="#69A7F3" transform="translate(496,369)"/>
<path d="M0 0 C4.29 0 8.58 0 13 0 C16.00225264 5.81027248 18.57524889 11.67706958 20.97290039 17.7590332 C21.35000813 18.70718619 21.72711588 19.65533918 22.11565113 20.63222408 C23.36292473 23.7704549 24.60523964 26.91062477 25.84765625 30.05078125 C26.7330571 32.28063684 27.61881716 34.51034983 28.50491333 36.7399292 C30.38608259 41.4749599 32.2652328 46.21078432 34.14266968 50.94729614 C39.01255511 63.23328352 43.89274787 75.51517653 48.7734375 87.796875 C49.25674971 89.01342836 49.74006191 90.22998173 50.23801994 91.48340034 C56.3996727 106.99076135 62.59169501 122.48513961 68.8515625 137.953125 C69.17709799 138.75793493 69.50263348 139.56274487 69.83803368 140.39194298 C72.80302494 147.72139089 75.77302349 155.04875096 78.75775528 162.37018394 C79.55444061 164.32634345 80.34895808 166.28336646 81.14254761 168.24078369 C82.08451425 170.56322853 83.03050893 172.88404577 83.98147583 175.20281982 C84.38486176 176.19944641 84.78824768 177.196073 85.20385742 178.22290039 C85.55381271 179.08073624 85.90376801 179.93857208 86.264328 180.82240295 C87 183 87 183 87 186 C87.95261719 185.96519531 88.90523437 185.93039062 89.88671875 185.89453125 C91.14097656 185.86746094 92.39523437 185.84039063 93.6875 185.8125 C94.92886719 185.77769531 96.17023438 185.74289062 97.44921875 185.70703125 C101.31602769 186.02607489 103.13616997 186.38057847 106 189 C106.33 191.31 106.66 193.62 107 196 C83.57 196 60.14 196 36 196 C36 192.7 36 189.4 36 186 C42.6 186 49.2 186 56 186 C53.52819912 179.54446789 51.05627017 173.08898484 48.58422852 166.63354492 C47.74532712 164.44280281 46.9064592 162.25204788 46.06762695 160.0612793 C45.25267858 157.93290014 44.43764664 155.80455299 43.62252808 153.67623901 C42.82908829 151.6040693 42.03605391 149.5317443 41.24343872 147.45925903 C39.60791268 143.18488931 37.97023473 138.91172408 36.30224609 134.64990234 C35.84543457 133.48023926 35.38862305 132.31057617 34.91796875 131.10546875 C34.53793701 130.1414917 34.15790527 129.17751465 33.76635742 128.18432617 C33 126 33 126 33 124 C10.89 124.33 -11.22 124.66 -34 125 C-40.02941287 140.58479078 -40.02941287 140.58479078 -46.05541992 156.17089844 C-46.82198139 158.15043767 -47.58865701 160.1299327 -48.35546875 162.109375 C-48.74013306 163.10598145 -49.12479736 164.10258789 -49.52111816 165.12939453 C-52.23683652 172.13385166 -55.08151732 179.07765524 -58 186 C-56.75863281 185.96519531 -55.51726562 185.93039062 -54.23828125 185.89453125 C-52.59636774 185.86638416 -50.95443954 185.83908499 -49.3125 185.8125 C-48.49587891 185.78736328 -47.67925781 185.76222656 -46.83789062 185.73632812 C-38.46098528 185.63458434 -38.46098528 185.63458434 -35 189 C-34.505 192.465 -34.505 192.465 -34 196 C-53.47 196 -72.94 196 -93 196 C-93 192.7 -93 189.4 -93 186 C-86.07 186 -79.14 186 -72 186 C-71.01 182.7 -70.02 179.4 -69 176 C-67.78404236 172.6810185 -66.54400112 169.38702762 -65.25390625 166.09765625 C-64.89097473 165.16328232 -64.52804321 164.22890839 -64.15411377 163.26622009 C-62.96069204 160.19682543 -61.76168239 157.12964811 -60.5625 154.0625 C-59.7148153 151.88617386 -58.86740852 149.70973946 -58.02026367 147.53320312 C-50.72547563 128.80485634 -43.38431587 110.0945331 -36.03771973 91.38645935 C-31.19568699 79.05588836 -26.37341025 66.71774273 -21.5625 54.375 C-16.86744518 42.33246836 -12.16271499 30.29382853 -7.42965698 18.26617432 C-6.85736204 16.81182212 -6.28535485 15.35735666 -5.71365356 13.902771 C-4.93638956 11.92567646 -4.15787609 9.94907921 -3.37890625 7.97265625 C-2.9413501 6.86156494 -2.50379395 5.75047363 -2.05297852 4.60571289 C-1 2 -1 2 0 0 Z M-2 39 C-4.7657576 46.15518323 -7.53063422 53.31070639 -10.29445839 60.46663666 C-11.57854172 63.79123159 -12.86290179 67.11571899 -14.14794922 70.43994141 C-17.44014546 78.95682319 -20.7264386 87.47593346 -24 96 C-24.35670776 96.92876953 -24.71341553 97.85753906 -25.08093262 98.81445312 C-25.96190411 101.11428044 -26.83795191 103.41588179 -27.7109375 105.71875 C-28.1651709 106.91435547 -28.6194043 108.10996094 -29.08740234 109.34179688 C-30.10823691 111.84685541 -30.10823691 111.84685541 -30 114 C-10.53 114 8.94 114 29 114 C22.46379476 96.35224585 15.84164685 78.78748927 8.875 61.3125 C8.00492176 59.12316074 7.13512941 56.93370785 6.265625 54.74414062 C4.18034839 49.49479058 2.09165794 44.24681039 0 39 C-0.66 39 -1.32 39 -2 39 Z " fill="#6677F1" transform="translate(1106,369)"/>
<path d="M0 0 C1.79244141 0.01740234 1.79244141 0.01740234 3.62109375 0.03515625 C5.41740234 0.04869141 5.41740234 0.04869141 7.25 0.0625 C8.17683594 0.07410156 9.10367188 0.08570313 10.05859375 0.09765625 C14.11699541 7.73253595 17.19813059 15.73553715 20.3671875 23.765625 C21.00033677 25.36205702 21.63381999 26.95835662 22.26760864 28.55453491 C23.98850898 32.89103739 25.7051292 37.22922245 27.42094803 41.56773758 C29.22806436 46.1352037 31.03876211 50.70124919 32.84936523 55.26733398 C33.59889562 57.15760668 34.34842256 59.04788074 35.09794617 60.93815613 C35.47489813 61.88879629 35.85185009 62.83943645 36.24022484 63.8188839 C37.40696291 66.76182596 38.57318874 69.70497062 39.73933411 72.64814758 C45.19728938 86.42056043 50.67658216 100.18436442 56.16739464 113.94370842 C57.46263878 117.18973883 58.7573929 120.43596423 60.05195618 123.68226624 C60.68536816 125.27062617 60.68536816 125.27062617 61.33157635 126.89107418 C62.17675027 129.01049708 63.0219099 131.12992567 63.86705494 133.24936008 C65.95198056 138.47730143 68.03811418 143.70475504 70.12667847 148.9312439 C72.09650054 153.8607719 74.06312912 158.79156193 76.02737045 163.72331619 C76.75402346 165.54602104 77.48189382 167.36824108 78.21103287 169.18995285 C79.20575885 171.67560872 80.19629966 174.16289143 81.18579102 176.65063477 C81.47999656 177.38284839 81.7742021 178.11506201 82.07732296 178.86946392 C84.05859375 183.86949902 84.05859375 183.86949902 84.05859375 186.09765625 C85.01121094 186.06285156 85.96382812 186.02804687 86.9453125 185.9921875 C88.19957031 185.96511719 89.45382812 185.93804688 90.74609375 185.91015625 C91.98746094 185.87535156 93.22882813 185.84054687 94.5078125 185.8046875 C98.37462144 186.12373114 100.19476372 186.47823472 103.05859375 189.09765625 C103.38859375 191.40765625 103.71859375 193.71765625 104.05859375 196.09765625 C80.62859375 196.09765625 57.19859375 196.09765625 33.05859375 196.09765625 C33.05859375 192.79765625 33.05859375 189.49765625 33.05859375 186.09765625 C39.65859375 186.09765625 46.25859375 186.09765625 53.05859375 186.09765625 C52.46844482 184.57479004 51.8782959 183.05192383 51.27026367 181.48291016 C49.06919479 175.80013192 46.87310447 170.11544044 44.6784668 164.43017578 C43.73026746 161.97587971 42.78074209 159.5220955 41.82983398 157.06884766 C40.45853263 153.53032986 39.09210534 149.98996215 37.7265625 146.44921875 C37.30457077 145.36339508 36.88257904 144.27757141 36.44779968 143.15884399 C35.84751701 141.59835831 35.84751701 141.59835831 35.23510742 140.00634766 C34.88647141 139.10477936 34.53783539 138.20321106 34.17863464 137.27432251 C32.64840154 132.93426682 31.38094664 128.50549921 30.05859375 124.09765625 C7.94859375 124.42765625 -14.16140625 124.75765625 -36.94140625 125.09765625 C-41.84767667 137.68955311 -41.84767667 137.68955311 -46.75195312 150.28222656 C-51.41530053 162.24763463 -56.15200321 174.18216295 -60.94140625 186.09765625 C-60.08575325 186.07918892 -60.08575325 186.07918892 -59.21281433 186.06034851 C-57.64037135 186.02641089 -56.06791694 185.99299943 -54.49545288 185.96005249 C-52.84484833 185.92331047 -51.19443331 185.87779646 -49.54418945 185.82739258 C-41.39197557 185.74236893 -41.39197557 185.74236893 -37.94140625 189.09765625 C-37.44640625 192.56265625 -37.44640625 192.56265625 -36.94140625 196.09765625 C-56.41140625 196.09765625 -75.88140625 196.09765625 -95.94140625 196.09765625 C-95.94140625 192.79765625 -95.94140625 189.49765625 -95.94140625 186.09765625 C-89.01140625 186.09765625 -82.08140625 186.09765625 -74.94140625 186.09765625 C-74.61140625 184.44765625 -74.28140625 182.79765625 -73.94140625 181.09765625 C-73.45336725 179.63988589 -72.92790967 178.19420813 -72.36938477 176.76196289 C-71.88498932 175.51099571 -71.88498932 175.51099571 -71.39080811 174.23475647 C-71.03754456 173.33486496 -70.68428101 172.43497345 -70.3203125 171.5078125 C-69.94908264 170.55269272 -69.57785278 169.59757294 -69.19537354 168.61351013 C-67.96882939 165.46083963 -66.73641623 162.31049873 -65.50390625 159.16015625 C-64.641844 156.94804416 -63.78011361 154.73580272 -62.91870117 152.5234375 C-60.69615517 146.81877665 -58.46842304 141.11615841 -56.23852539 135.41436768 C-55.0041448 132.25807766 -53.77049477 129.10150324 -52.53710938 125.94482422 C-48.78808583 116.3508807 -45.03447811 106.75873867 -41.27734375 97.16796875 C-37.13933327 86.60489306 -33.00581224 76.04007553 -28.87890625 65.47265625 C-28.55877563 64.6532959 -28.23864502 63.83393555 -27.90881348 62.98974609 C-23.98075232 52.93367138 -20.07746426 42.86836525 -16.19921875 32.79296875 C-15.8055159 31.77085297 -15.41181305 30.74873718 -15.00617981 29.69564819 C-13.08711328 24.71298875 -11.17083272 19.7292919 -9.25952148 14.74365234 C-8.57155357 12.9553645 -7.88348913 11.16711379 -7.1953125 9.37890625 C-6.72153671 8.13840012 -6.72153671 8.13840012 -6.2381897 6.87283325 C-3.63436776 0.12066294 -3.63436776 0.12066294 0 0 Z M-4.94140625 39.09765625 C-7.48452245 45.63577231 -10.02532078 52.17478602 -12.56469727 58.71435547 C-13.42422155 60.92711554 -14.28422785 63.13968845 -15.14477539 65.35205078 C-19.83651823 77.41496363 -24.49776024 89.48898837 -29.0703125 101.59765625 C-29.6558213 103.13860962 -29.6558213 103.13860962 -30.25315857 104.71069336 C-30.60733353 105.65307861 -30.96150848 106.59546387 -31.32641602 107.56640625 C-31.7959243 108.81067383 -31.7959243 108.81067383 -32.2749176 110.08007812 C-33.04596271 112.06003157 -33.04596271 112.06003157 -32.94140625 114.09765625 C-13.47140625 114.09765625 5.99859375 114.09765625 26.05859375 114.09765625 C16.61654397 89.00878111 6.85949716 64.04819941 -2.94140625 39.09765625 C-3.60140625 39.09765625 -4.26140625 39.09765625 -4.94140625 39.09765625 Z " fill="#6BBDF3" transform="translate(382.94140625,368.90234375)"/>
</svg>
