<?xml version="1.0" encoding="UTF-8"?>
<!DOCTYPE svg PUBLIC "-//W3C//DTD SVG 1.1//EN" "http://www.w3.org/Graphics/SVG/1.1/DTD/svg11.dtd">
<svg xmlns="http://www.w3.org/2000/svg" version="1.1" width="512px" height="512px" style="shape-rendering:geometricPrecision; text-rendering:geometricPrecision; image-rendering:optimizeQuality; fill-rule:evenodd; clip-rule:evenodd" xmlns:xlink="http://www.w3.org/1999/xlink">
<g><path style="opacity:0.974" fill="#02bdff" d="M 280.5,-0.5 C 289.5,-0.5 298.5,-0.5 307.5,-0.5C 334.174,2.16884 359.507,9.50218 383.5,21.5C 346.663,21.1682 309.996,21.5015 273.5,22.5C 269.058,12.7249 271.391,5.05822 280.5,-0.5 Z"/></g>
<g><path style="opacity:0.979" fill="#05b9ff" d="M 383.5,21.5 C 400.78,29.1399 416.446,39.1399 430.5,51.5C 412.167,51.5 393.833,51.5 375.5,51.5C 345.655,36.6945 313.988,29.1945 280.5,29C 277.247,27.7262 274.914,25.5595 273.5,22.5C 309.996,21.5015 346.663,21.1682 383.5,21.5 Z"/></g>
<g><path style="opacity:0.977" fill="#0bb2ff" d="M 375.5,51.5 C 393.833,51.5 412.167,51.5 430.5,51.5C 442.871,61.5368 453.871,72.8701 463.5,85.5C 449.99,85.1711 436.656,85.5044 423.5,86.5C 409.158,72.4815 393.158,60.8148 375.5,51.5 Z"/></g>
<g><path style="opacity:0.992" fill="#0db0ff" d="M 375.5,85.5 C 342.167,85.5 308.833,85.5 275.5,85.5C 274.196,84.0131 273.03,82.3464 272,80.5C 269.51,64.4897 276.343,57.4897 292.5,59.5C 322.809,60.1609 350.476,68.8276 375.5,85.5 Z"/></g>
<g><path style="opacity:0.984" fill="#11abff" d="M 134.5,115.5 C 121.989,115.171 109.655,115.505 97.5,116.5C 90.5303,111.243 83.5303,111.243 76.5,116.5C 62.8333,115.833 49.1667,115.167 35.5,114.5C 43.6617,105.505 52.3284,97.0051 61.5,89C 85.1008,76.1094 105.934,79.6094 124,99.5C 127.329,104.986 130.829,110.32 134.5,115.5 Z"/></g>
<g><path style="opacity:0.977" fill="#10abff" d="M 275.5,85.5 C 308.833,85.5 342.167,85.5 375.5,85.5C 388.989,93.3187 400.656,103.319 410.5,115.5C 395.794,114.85 381.461,115.517 367.5,117.5C 341.816,98.347 312.816,88.847 280.5,89C 278.654,87.9702 276.987,86.8036 275.5,85.5 Z"/></g>
<g><path style="opacity:0.978" fill="#10acff" d="M 463.5,85.5 C 470.333,93.0065 475.999,101.34 480.5,110.5C 468.42,110.188 456.42,110.521 444.5,111.5C 437.876,102.874 430.876,94.5406 423.5,86.5C 436.656,85.5044 449.99,85.1711 463.5,85.5 Z"/></g>
<g><path style="opacity:0.975" fill="#15a5ff" d="M 35.5,114.5 C 49.1667,115.167 62.8333,115.833 76.5,116.5C 67.5,126.167 58.1667,135.5 48.5,144.5C 35.1667,144.5 21.8333,144.5 8.5,144.5C 9.72259,141.726 11.2226,139.059 13,136.5C 20.3684,128.964 27.8684,121.631 35.5,114.5 Z"/></g>
<g><path style="opacity:0.98" fill="#15a5ff" d="M 134.5,115.5 C 140.921,124.582 146.921,133.916 152.5,143.5C 140.833,144.167 129.167,144.833 117.5,145.5C 110.599,136.045 103.933,126.378 97.5,116.5C 109.655,115.505 121.989,115.171 134.5,115.5 Z"/></g>
<g><path style="opacity:0.98" fill="#15a5ff" d="M 410.5,115.5 C 418.712,124.244 425.712,133.911 431.5,144.5C 419.322,144.172 407.322,144.505 395.5,145.5C 387.194,135.194 377.86,125.86 367.5,117.5C 381.461,115.517 395.794,114.85 410.5,115.5 Z"/></g>
<g><path style="opacity:0.978" fill="#15a5ff" d="M 480.5,110.5 C 487.812,122.125 493.812,134.458 498.5,147.5C 487.833,147.5 477.167,147.5 466.5,147.5C 466.5,148.5 466.5,149.5 466.5,150.5C 460.462,136.757 453.129,123.757 444.5,111.5C 456.42,110.521 468.42,110.188 480.5,110.5 Z"/></g>
<g><path style="opacity:0.979" fill="#16a4ff" d="M 354.5,144.5 C 327.833,144.5 301.167,144.5 274.5,144.5C 270.264,137.153 270.597,129.986 275.5,123C 280.162,120.001 285.328,118.835 291,119.5C 315.373,120.116 336.539,128.449 354.5,144.5 Z"/></g>
<g><path style="opacity:0.974" fill="#1a9fff" d="M 8.5,144.5 C 21.8333,144.5 35.1667,144.5 48.5,144.5C 43.1273,149.706 38.2939,155.373 34,161.5C 31.8909,165.936 30.7243,170.603 30.5,175.5C 20.2487,174.525 9.91536,174.192 -0.5,174.5C -0.5,172.167 -0.5,169.833 -0.5,167.5C 1.1245,159.293 4.1245,151.626 8.5,144.5 Z"/></g>
<g><path style="opacity:0.978" fill="#1a9fff" d="M 152.5,143.5 C 159.858,153.537 166.858,163.87 173.5,174.5C 161.167,174.5 148.833,174.5 136.5,174.5C 129.781,165.109 123.448,155.442 117.5,145.5C 129.167,144.833 140.833,144.167 152.5,143.5 Z"/></g>
<g><path style="opacity:0.977" fill="#1a9fff" d="M 274.5,144.5 C 301.167,144.5 327.833,144.5 354.5,144.5C 364.697,152.363 372.697,162.029 378.5,173.5C 366.345,174.495 354.011,174.829 341.5,174.5C 325.044,157.287 304.711,148.787 280.5,149C 278.253,147.723 276.253,146.223 274.5,144.5 Z"/></g>
<g><path style="opacity:0.978" fill="#1a9fff" d="M 431.5,144.5 C 436.885,153.601 440.885,163.268 443.5,173.5C 432.932,174.188 422.265,174.855 411.5,175.5C 407.2,164.897 401.866,154.897 395.5,145.5C 407.322,144.505 419.322,144.172 431.5,144.5 Z"/></g>
<g><path style="opacity:0.981" fill="#1a9fff" d="M 498.5,147.5 C 501.629,156.347 504.296,165.347 506.5,174.5C 495.752,174.809 485.085,174.476 474.5,173.5C 471.861,165.919 469.194,158.252 466.5,150.5C 466.5,149.5 466.5,148.5 466.5,147.5C 477.167,147.5 487.833,147.5 498.5,147.5 Z"/></g>
<g><path style="opacity:0.98" fill="#2098ff" d="M 443.5,173.5 C 447.475,184.036 449.809,195.036 450.5,206.5C 440.889,208.474 430.889,209.141 420.5,208.5C 418.615,197.302 415.615,186.302 411.5,175.5C 422.265,174.855 432.932,174.188 443.5,173.5 Z"/></g>
<g><path style="opacity:0.977" fill="#2098ff" d="M -0.5,174.5 C 9.91536,174.192 20.2487,174.525 30.5,175.5C 30.0153,186.737 31.3486,197.737 34.5,208.5C 23.7517,208.809 13.085,208.476 2.5,207.5C 1.60846,203.025 0.608458,198.692 -0.5,194.5C -0.5,187.833 -0.5,181.167 -0.5,174.5 Z"/></g>
<g><path style="opacity:0.975" fill="#2098ff" d="M 136.5,174.5 C 148.833,174.5 161.167,174.5 173.5,174.5C 181.437,184.327 184.771,195.66 183.5,208.5C 172.833,208.5 162.167,208.5 151.5,208.5C 152.836,204.49 152.67,200.49 151,196.5C 145.908,189.31 141.074,181.976 136.5,174.5 Z"/></g>
<g><path style="opacity:0.986" fill="#2098ff" d="M 328.5,208.5 C 312.991,208.17 297.658,208.504 282.5,209.5C 272.694,205.89 269.194,198.89 272,188.5C 275.221,181.471 280.721,178.471 288.5,179.5C 303.529,179.93 315.362,186.264 324,198.5C 326.324,201.48 327.824,204.813 328.5,208.5 Z"/></g>
<g><path style="opacity:0.978" fill="#2098ff" d="M 378.5,173.5 C 384.867,184.266 388.867,195.933 390.5,208.5C 380.085,208.192 369.751,208.525 359.5,209.5C 356.387,196.272 350.387,184.605 341.5,174.5C 354.011,174.829 366.345,174.495 378.5,173.5 Z"/></g>
<g><path style="opacity:0.981" fill="#2098ff" d="M 474.5,173.5 C 485.085,174.476 495.752,174.809 506.5,174.5C 508.46,184.248 510.127,193.914 511.5,203.5C 511.5,205.5 511.5,207.5 511.5,209.5C 501.249,208.525 490.915,208.192 480.5,208.5C 479.04,196.739 477.04,185.072 474.5,173.5 Z"/></g>
<g><path style="opacity:0.976" fill="#2593ff" d="M 450.5,206.5 C 451.656,214.323 451.823,222.323 451,230.5C 445.848,239.475 438.348,241.975 428.5,238C 423.961,235.113 421.461,230.947 421,225.5C 420.501,219.843 420.334,214.176 420.5,208.5C 430.889,209.141 440.889,208.474 450.5,206.5 Z"/></g>
<g><path style="opacity:0.975" fill="#2593ff" d="M 2.5,207.5 C 13.085,208.476 23.7517,208.809 34.5,208.5C 38.4804,218.09 42.4804,227.757 46.5,237.5C 35.6794,238.495 24.6794,238.828 13.5,238.5C 8.86779,228.609 5.20113,218.276 2.5,207.5 Z"/></g>
<g><path style="opacity:0.974" fill="#2593ff" d="M 282.5,209.5 C 297.658,208.504 312.991,208.17 328.5,208.5C 329.927,210.148 330.76,212.148 331,214.5C 331.667,219.833 331.667,225.167 331,230.5C 326.652,238.915 319.819,241.748 310.5,239C 302.993,234.829 299.493,228.329 300,219.5C 296.403,212.446 290.57,209.113 282.5,209.5 Z"/></g>
<g><path style="opacity:0.981" fill="#2593ff" d="M 390.5,208.5 C 391.597,215.784 391.763,223.118 391,230.5C 385.848,239.475 378.348,241.975 368.5,238C 366,236.833 364.167,235 363,232.5C 361.048,224.974 359.881,217.307 359.5,209.5C 369.751,208.525 380.085,208.192 390.5,208.5 Z"/></g>
<g><path style="opacity:0.98" fill="#2593ff" d="M 480.5,208.5 C 490.915,208.192 501.249,208.525 511.5,209.5C 511.5,216.5 511.5,223.5 511.5,230.5C 506.919,238.778 499.919,241.611 490.5,239C 485.004,236.187 481.838,231.687 481,225.5C 480.501,219.843 480.334,214.176 480.5,208.5 Z"/></g>
<g><path style="opacity:0.984" fill="#2591ff" d="M 151.5,208.5 C 162.167,208.5 172.833,208.5 183.5,208.5C 181.96,220.922 176.293,230.922 166.5,238.5C 152.323,238.829 138.323,238.496 124.5,237.5C 133.867,228.134 142.867,218.468 151.5,208.5 Z"/></g>
<g><path style="opacity:0.977" fill="#298cff" d="M 124.5,237.5 C 138.323,238.496 152.323,238.829 166.5,238.5C 159.869,245.632 153.036,252.632 146,259.5C 145.982,261.797 146.149,264.131 146.5,266.5C 136.347,267.494 126.014,267.828 115.5,267.5C 113.005,255.723 116.005,245.723 124.5,237.5 Z"/></g>
<g><path style="opacity:0.98" fill="#298dff" d="M 46.5,237.5 C 51.1517,245.465 55.8184,253.465 60.5,261.5C 48.5,261.5 36.5,261.5 24.5,261.5C 20.0515,254.267 16.3848,246.601 13.5,238.5C 24.6794,238.828 35.6794,238.495 46.5,237.5 Z"/></g>
<g><path style="opacity:0.978" fill="#2f86ff" d="M 146.5,266.5 C 150.903,276.904 156.569,286.571 163.5,295.5C 151.88,297.479 139.88,298.146 127.5,297.5C 121.351,288.392 117.351,278.392 115.5,267.5C 126.014,267.828 136.347,267.494 146.5,266.5 Z"/></g>
<g><path style="opacity:0.979" fill="#2e87ff" d="M 24.5,261.5 C 36.5,261.5 48.5,261.5 60.5,261.5C 68.1077,273.772 76.1077,285.772 84.5,297.5C 72.1401,297.535 59.4734,297.535 46.5,297.5C 38.177,286.203 30.8437,274.203 24.5,261.5 Z"/></g>
<g><path style="opacity:0.978" fill="#347fff" d="M 46.5,297.5 C 59.4734,297.535 72.1401,297.535 84.5,297.5C 93.4932,308.828 102.493,320.161 111.5,331.5C 98.3226,331.171 85.3226,331.505 72.5,332.5C 63.1139,321.407 54.4472,309.74 46.5,297.5 Z"/></g>
<g><path style="opacity:0.975" fill="#3480ff" d="M 163.5,295.5 C 173.687,307.835 184.354,319.835 195.5,331.5C 181.656,331.171 167.99,331.504 154.5,332.5C 143.817,322.136 134.817,310.469 127.5,297.5C 139.88,298.146 151.88,297.479 163.5,295.5 Z"/></g>
<g><path style="opacity:0.984" fill="#3a78ff" d="M 371.5,360.5 C 353.833,361.167 336.167,361.833 318.5,362.5C 312.052,357.694 305.385,357.36 298.5,361.5C 284.323,361.829 270.323,361.496 256.5,360.5C 264.995,351.172 273.995,342.339 283.5,334C 299.006,325.766 314.673,325.433 330.5,333C 344.195,342.177 357.862,351.343 371.5,360.5 Z"/></g>
<g><path style="opacity:0.978" fill="#3979ff" d="M 111.5,331.5 C 121.172,341.173 130.506,351.173 139.5,361.5C 125.656,361.171 111.99,361.504 98.5,362.5C 89.489,352.821 80.8223,342.821 72.5,332.5C 85.3226,331.505 98.3226,331.171 111.5,331.5 Z"/></g>
<g><path style="opacity:0.978" fill="#3979ff" d="M 195.5,331.5 C 208.134,342.149 221.467,351.815 235.5,360.5C 218.341,361.497 201.008,361.83 183.5,361.5C 172.812,352.812 163.146,343.146 154.5,332.5C 167.99,331.504 181.656,331.171 195.5,331.5 Z"/></g>
<g><path style="opacity:0.976" fill="#3f73ff" d="M 139.5,361.5 C 149.193,370.861 158.86,380.194 168.5,389.5C 154.343,390.496 140.01,390.829 125.5,390.5C 115.8,381.801 106.8,372.467 98.5,362.5C 111.99,361.504 125.656,361.171 139.5,361.5 Z"/></g>
<g><path style="opacity:0.982" fill="#3f73ff" d="M 235.5,360.5 C 240.134,362.656 244.967,364.323 250,365.5C 252.317,364.015 254.484,362.348 256.5,360.5C 270.323,361.496 284.323,361.829 298.5,361.5C 289.369,371.132 280.036,380.632 270.5,390C 259.857,396.747 248.524,398.08 236.5,394C 216.528,386.692 198.861,375.859 183.5,361.5C 201.008,361.83 218.341,361.497 235.5,360.5 Z"/></g>
<g><path style="opacity:0.976" fill="#3f72ff" d="M 371.5,360.5 C 386.395,369.774 400.728,379.774 414.5,390.5C 396.992,390.17 379.659,390.503 362.5,391.5C 347.482,382.327 332.816,372.661 318.5,362.5C 336.167,361.833 353.833,361.167 371.5,360.5 Z"/></g>
<g><path style="opacity:0.974" fill="#436dff" d="M 168.5,389.5 C 180.233,399.906 192.233,409.906 204.5,419.5C 189.009,420.496 173.342,420.83 157.5,420.5C 145.902,411.572 135.236,401.572 125.5,390.5C 140.01,390.829 154.343,390.496 168.5,389.5 Z"/></g>
<g><path style="opacity:0.986" fill="#436dff" d="M 414.5,390.5 C 423.432,398.027 428.432,407.694 429.5,419.5C 419.249,420.475 408.915,420.808 398.5,420.5C 397.371,417.082 395.371,414.249 392.5,412C 382.261,405.391 372.261,398.558 362.5,391.5C 379.659,390.503 396.992,390.17 414.5,390.5 Z"/></g>
<g><path style="opacity:0.978" fill="#4866ff" d="M 429.5,419.5 C 430.638,433.091 426.638,444.758 417.5,454.5C 403.167,454.5 388.833,454.5 374.5,454.5C 381.131,447.368 387.964,440.368 395,433.5C 397.862,429.657 399.029,425.324 398.5,420.5C 408.915,420.808 419.249,420.475 429.5,419.5 Z"/></g>
<g><path style="opacity:0.976" fill="#4867ff" d="M 204.5,419.5 C 221.522,432.006 238.855,444.006 256.5,455.5C 237.706,454.187 219.039,454.187 200.5,455.5C 185.272,444.939 170.938,433.272 157.5,420.5C 173.342,420.83 189.009,420.496 204.5,419.5 Z"/></g>
<g><path style="opacity:0.975" fill="#4e60ff" d="M 200.5,455.5 C 219.039,454.187 237.706,454.187 256.5,455.5C 269.421,462.459 282.755,468.626 296.5,474C 310.676,479.635 325.342,481.635 340.5,480C 344.265,478.951 347.932,477.618 351.5,476C 359.338,468.995 367.004,461.828 374.5,454.5C 388.833,454.5 403.167,454.5 417.5,454.5C 407.833,464.833 397.833,474.833 387.5,484.5C 340.664,484.168 293.997,484.501 247.5,485.5C 230.986,476.748 215.319,466.748 200.5,455.5 Z"/></g>
<g><path style="opacity:0.981" fill="#525bff" d="M 247.5,485.5 C 293.997,484.501 340.664,484.168 387.5,484.5C 376.434,498.858 362.101,507.858 344.5,511.5C 335.5,511.5 326.5,511.5 317.5,511.5C 292.697,507.007 269.364,498.341 247.5,485.5 Z"/></g>
</svg>
